<?xml version="1.0" encoding="UTF-8"?>
<svg width="32px" height="32px" viewBox="0 0 32 32" version="1.1" xmlns="http://www.w3.org/2000/svg" xmlns:xlink="http://www.w3.org/1999/xlink">
    <!-- Generator: Sketch 51.3 (57544) - http://www.bohemiancoding.com/sketch -->
    <title>close_lightgray</title>
    <desc>Created with Sketch.</desc>
    <defs></defs>
    <g id="close_lightgray" stroke="none" stroke-width="1" fill="none" fill-rule="evenodd">
        <path d="M2,18 C1.44771525,18 1,17.3284271 1,16.5 C1,15.6715729 1.44771525,15 2,15 L30,15 C30.5522847,15 31,15.6715729 31,16.5 C31,17.3284271 30.5522847,18 30,18 L2,18 Z" id="Line-3" fill="#CED4DA" fill-rule="nonzero" transform="translate(16.000000, 16.500000) rotate(-315.000000) translate(-16.000000, -16.500000) "></path>
        <path d="M14.5,2 C14.5,1.44771525 15.1715729,1 16,1 C16.8284271,1 17.5,1.44771525 17.5,2 L17.5,30 C17.5,30.5522847 16.8284271,31 16,31 C15.1715729,31 14.5,30.5522847 14.5,30 L14.5,2 Z" id="Line" fill="#CED4DA" fill-rule="nonzero" transform="translate(16.000000, 16.000000) rotate(-315.000000) translate(-16.000000, -16.000000) "></path>
    </g>
</svg>