<?xml version="1.0" encoding="UTF-8"?>
<svg width="32px" height="32px" viewBox="0 0 32 32" version="1.1" xmlns="http://www.w3.org/2000/svg" xmlns:xlink="http://www.w3.org/1999/xlink">
    <!-- Generator: Sketch 51.3 (57544) - http://www.bohemiancoding.com/sketch -->
    <title>v copy</title>
    <desc>Created with Sketch.</desc>
    <defs></defs>
    <g id="v-copy" stroke="none" stroke-width="1" fill="none" fill-rule="evenodd">
        <g id="settings-2-outline" fill-rule="nonzero">
            <rect id="Rectangle-path" fill="#000000" opacity="0" transform="translate(16.000000, 16.000000) rotate(180.000000) translate(-16.000000, -16.000000) " x="0" y="0" width="32" height="32"></rect>
            <path d="M17.1466659,29.2986998 L14.626666,29.2986998 C13.3895482,29.2986998 12.3866661,28.290608 12.3866661,27.0470636 L12.3866661,25.5861806 C12.3719268,25.4104892 12.2576812,25.2591105 12.0933328,25.1975053 C11.9267407,25.0902147 11.7132583,25.0902147 11.5466662,25.1975053 L10.5599996,26.269713 C10.1419788,26.6928612 9.57325323,26.9308334 8.97999965,26.9308334 C8.38674608,26.9308334 7.81802047,26.6928612 7.39999974,26.269713 L5.57333317,24.473765 C5.1461651,24.0542998 4.90574422,23.4791256 4.90666654,22.878856 C4.90752333,22.2710814 5.14712319,21.6882376 5.57333317,21.2571418 L6.55999978,20.2653497 C6.65730994,20.1145216 6.65730994,19.9202817 6.55999978,19.7694536 C6.47999979,19.5684147 6.34666646,19.4209861 6.15999981,19.4209861 L4.79999988,19.4209861 C3.56072845,19.4136149 2.5599783,18.4016783 2.56,17.1559473 L2.56,14.6228565 C2.56,13.3793121 3.56288211,12.3712202 4.79999988,12.3712202 L6.25333313,12.3712202 C6.42811652,12.3564043 6.57871294,12.2415653 6.63999978,12.0763631 C6.74673589,11.9089056 6.74673589,11.6943142 6.63999978,11.5268567 L5.57333317,10.5350645 C5.1523718,10.1148722 4.9156294,9.5431922 4.9156294,8.94685679 C4.9156294,8.35052138 5.1523718,7.77884135 5.57333317,7.35864909 L7.35999974,5.52249334 C7.77319633,5.09515147 8.34048521,4.85352611 8.93333299,4.85236351 C9.54258379,4.84967606 10.1278583,5.0907887 10.5599996,5.52249334 L11.5466662,6.5142855 C11.6967148,6.61210116 11.8899509,6.61210116 12.0399995,6.5142855 C12.2399995,6.43386992 12.3866661,6.29984395 12.3866661,6.1122076 L12.3866661,4.74514274 C12.3939992,3.49943354 13.4007062,2.49348469 14.6399993,2.49350649 L17.2266659,2.49350649 C18.4637836,2.49350649 19.4666658,3.50159838 19.4666658,4.74514274 L19.4666658,6.20602577 C19.4814051,6.38171713 19.5956506,6.53309587 19.7599991,6.59470108 C19.9265912,6.70199166 20.1400736,6.70199166 20.3066657,6.59470108 L21.2266657,5.52249334 C21.6446864,5.09934516 22.213412,4.86137292 22.8066656,4.86137292 C23.3999191,4.86137292 23.9686448,5.09934516 24.3866655,5.52249334 L26.2133321,7.3184413 C26.6392279,7.73877548 26.8794131,8.313386 26.8799987,8.9133503 C26.8930073,9.52381868 26.6512546,10.1118993 26.2133321,10.5350645 L25.2266654,11.5268567 C25.1293553,11.6776847 25.1293553,11.8719247 25.2266654,12.0227527 C25.3066654,12.2237917 25.4399988,12.3712202 25.6266654,12.3712202 L27.0799987,12.3712202 C28.2826381,12.4285091 29.2280149,13.4260162 29.2266652,14.6362591 L29.2266652,17.2363628 C29.2266652,18.4799072 28.2237831,19.4879991 26.9866653,19.4879991 L25.5333321,19.4879991 C25.3585487,19.502815 25.2079523,19.617654 25.1466654,19.7828562 C25.0493553,19.9336843 25.0493553,20.1279242 25.1466654,20.2787523 L26.1733321,21.3107522 C26.5942934,21.7309445 26.8310358,22.3026245 26.8310358,22.8989599 C26.8310358,23.4952953 26.5942934,24.0669754 26.1733321,24.4871676 L24.4266655,26.269713 C24.0134689,26.6970549 23.44618,26.9386802 22.8533322,26.9398428 C22.2579529,26.9319838 21.6889547,26.691667 21.2666657,26.269713 L20.239999,25.2779208 C20.0899505,25.1801052 19.8967143,25.1801052 19.7466657,25.2779208 C19.5466657,25.3583364 19.3999991,25.4923624 19.3999991,25.6799987 L19.3999991,27.1408818 C19.3430063,28.3497687 18.3506543,29.3000565 17.1466659,29.2986998 Z M15.0533327,26.6181805 L16.7333326,26.6181805 L16.7333326,25.5861806 C16.7449473,24.3222146 17.5134388,23.189944 18.6799991,22.7180249 C19.8515239,22.2032737 21.2164353,22.452247 22.1333323,23.3479469 L22.8533322,24.0716871 L24.0266655,22.8922586 L23.3066655,22.1551158 C22.4213122,21.2474856 22.168552,19.8924288 22.6666656,18.7240511 C23.1403221,17.55669 24.2658275,16.7901195 25.5199988,16.7806746 L26.5599987,16.7806746 L26.5599987,15.0517396 L25.5333321,15.0517396 C24.2758983,15.0400645 23.1494792,14.2675808 22.6799989,13.0949605 C22.167908,11.9173498 22.4155946,10.545348 23.3066655,9.62368793 L24.0266655,8.89994771 L22.8533322,7.7205192 L22.1199989,8.44425942 C21.204566,9.2847861 19.8872391,9.51528283 18.7431042,9.03512507 C17.5989693,8.55496732 16.8357626,7.4513355 16.7866659,6.20602577 L16.7866659,5.17402583 L15.0533327,5.17402583 L15.0533327,6.20602577 C15.0417179,7.4699917 14.2732264,8.60226231 13.1066661,9.07418146 C11.9351413,9.58893263 10.5702299,9.33995932 9.65333295,8.44425942 L8.93333299,7.7205192 L7.75999972,8.89994771 L8.47999968,9.63709052 C9.31618255,10.557279 9.54548808,11.8814491 9.06781176,13.0315275 C8.59013544,14.181606 7.49220715,14.9487774 6.25333313,14.9981292 L5.22666652,14.9981292 L5.22666652,16.6868564 L6.25333313,16.6868564 C7.51076693,16.6985315 8.63718602,17.4710151 9.10666631,18.6436355 C9.61875727,19.8212461 9.37107065,21.193248 8.47999968,22.114908 L7.75999972,22.8386482 L8.93333299,24.0180768 L9.66666628,23.2943365 C10.5820993,22.4538099 11.8994261,22.2233131 13.043561,22.7034709 C14.1876959,23.1836286 14.9509026,24.2872605 14.9999993,25.5325702 L15.0533327,26.6181805 Z" id="Shape" fill="#878481"></path>
            <path d="M15.7867353,20.5714286 C13.8884869,20.5714286 12.1771522,19.4070258 11.450724,17.6211795 C10.7242958,15.8353332 11.1258316,13.7797352 12.4680959,12.4129076 C13.8103602,11.04608 15.8290171,10.6371961 17.5827699,11.3769179 C19.3365228,12.1166397 20.48,13.8592915 20.48,15.7922776 C20.48,18.4317298 18.3787538,20.5714286 15.7867353,20.5714286 Z M15.7867353,13.7440701 C14.6758702,13.7440701 13.7753361,14.6610838 13.7753361,15.7922776 C13.7753361,16.9234714 14.6758702,17.8404852 15.7867353,17.8404852 C16.8976003,17.8404852 17.7981344,16.9234714 17.7981344,15.7922776 C17.7981344,14.6610838 16.8976003,13.7440701 15.7867353,13.7440701 Z" id="Shape" fill="#878481"></path>
        </g>
    </g>
</svg>